<svg id="bell" xmlns="http://www.w3.org/2000/svg" width="48" height="48" viewBox="0 0 48 48">
  <rect id="Rectangle_6143" data-name="Rectangle 6143" width="48" height="48" fill="rgba(255,255,255,0)"/>
  <g id="Notification" transform="translate(14 14.008)">
    <path id="Notification-2" data-name="Notification" d="M19.832,16.762c-3.707-3.967-3.66-6.186-3.6-9.261.009-.4.016-.82.016-1.25A5.925,5.925,0,0,0,10,0a5.925,5.925,0,0,0-6.25,6.25c0,.432.007.849.016,1.25.061,3.075.109,5.294-3.6,9.261a.625.625,0,0,0,.457,1.051h6.41a3.1,3.1,0,0,0,5.93,0h6.41a.625.625,0,0,0,.457-1.051ZM10,18.751a1.867,1.867,0,0,1-1.614-.937h3.227A1.867,1.867,0,0,1,10,18.751ZM2.011,16.564a11.487,11.487,0,0,0,3-9.085c0-.4-.011-.8-.011-1.227a4.7,4.7,0,0,1,5-5,4.7,4.7,0,0,1,5,5c0,.424-.008.831-.016,1.227a11.487,11.487,0,0,0,3,9.085Z" transform="translate(0 0)" fill="#007dba"/>
  </g>
  <!-- <g id="push" transform="translate(-1230.824 -12.758)">
    <circle id="Ellipse_237" data-name="Ellipse 237" cx="8" cy="8" r="8" transform="translate(1253.824 21.758)" fill="#cc2d24"/>
    <text id="_4" data-name="4" transform="translate(1258.824 24.758)" fill="#fff" font-size="12" font-family="ProximaNova-Regular, Proxima Nova" letter-spacing="0.02em"><tspan x="-0.348" y="9">4</tspan></text>
  </g> -->
</svg>
