<svg id="messages" xmlns="http://www.w3.org/2000/svg" width="48" height="48" viewBox="0 0 48 48">
  <rect id="Rectangle" width="48" height="48" fill="none"/>
  <g id="Truck_Message" transform="translate(14 14)">
    <path id="Path_15072" data-name="Path 15072" d="M5,11.25a.625.625,0,0,1,.625-.625h4.563c0-.087.1-.175.175-.262a1.25,1.25,0,0,1,1.363-.262,1.438,1.438,0,0,1,.412.262,1.312,1.312,0,0,1,.363.888,1.25,1.25,0,0,1-.1.475,1.437,1.437,0,0,1-.262.412,1.25,1.25,0,0,1-1.775,0,.925.925,0,0,1-.163-.262H5.625A.625.625,0,0,1,5,11.25Zm.625-2.5a.625.625,0,0,0,.625-.625V3.75a10.2,10.2,0,0,1,3.825,1.625l.575,2.287a.587.587,0,0,0,.475.45l2.625.525V10A.625.625,0,0,0,15,10V8.125a.638.638,0,0,0-.5-.625l-2.738-.525L11.25,4.85a.563.563,0,0,0-.225-.338A10.3,10.3,0,0,0,5.625,2.5.625.625,0,0,0,5,3.125v5A.625.625,0,0,0,5.625,8.75ZM20,.625v13.75a.625.625,0,0,1-.625.625H7.188L3.625,19.75a.637.637,0,0,1-.5.25.55.55,0,0,1-.2,0,.638.638,0,0,1-.425-.625V15H.625A.625.625,0,0,1,0,14.375V.625A.625.625,0,0,1,.625,0h18.75A.625.625,0,0,1,20,.625Zm-1.25.625H1.25v12.5H3.125a.625.625,0,0,1,.625.625V17.5L6.375,14a.637.637,0,0,1,.5-.25H18.75Z" fill="#007dba"/>
  </g>
  <!-- <g id="push" transform="translate(-1230.824 -12.758)">
    <circle id="Ellipse_237" data-name="Ellipse 237" cx="8" cy="8" r="8" transform="translate(1253.824 21.758)" fill="#cc2d24"/>
    <text id="_4" data-name="4" transform="translate(1258.824 24.758)" fill="#fff" font-size="12" font-family="ProximaNova-Regular, Proxima Nova" letter-spacing="0.02em"><tspan x="-0.348" y="9"></tspan></text>
  </g> -->
</svg>
