<svg id="Question" xmlns="http://www.w3.org/2000/svg" width="48" height="48" viewBox="0 0 48 48">
  <rect id="Rectangle_14279" data-name="Rectangle 14279" width="48" height="48" fill="rgba(255,255,255,0)"/>
  <g id="Question-2" data-name="Question" transform="translate(15.006 14.005)">
    <path id="Question-3" data-name="Question" d="M10.5,18.746A1.25,1.25,0,1,1,9.25,17.5,1.25,1.25,0,0,1,10.5,18.746ZM9.874,15v-1.25c0-1.125,1.026-1.912,2.214-2.825C13.607,9.756,15.5,8.3,15.5,5.625,15.5,2.314,12.929,0,9.25,0A6.313,6.313,0,0,0,3.034,4.177a.625.625,0,1,0,1.185.395A5.02,5.02,0,0,1,9.25,1.251c2.488,0,5,1.352,5,4.374,0,2.062-1.418,3.152-2.92,4.306-1.328,1.022-2.7,2.077-2.7,3.816V15a.625.625,0,0,0,1.25,0Z" transform="translate(0 0)" fill="#007dba"/>
  </g>
</svg>
