<svg id="Waffle" xmlns="http://www.w3.org/2000/svg" width="48" height="48" viewBox="0 0 48 48">
  <rect id="Rectangle_6143" data-name="Rectangle 6143" width="48" height="48" fill="rgba(255,255,255,0)"/>
  <g id="Menu_Waffle" transform="translate(14 14)">
    <path id="Menu_Waffle-2" data-name="Menu_Waffle" d="M3.75.625v2.5a.625.625,0,0,1-.625.625H.625A.625.625,0,0,1,0,3.125V.625A.625.625,0,0,1,.625,0h2.5A.625.625,0,0,1,3.75.625ZM11.25,0H8.75a.625.625,0,0,0-.625.625v2.5a.625.625,0,0,0,.625.625h2.5a.625.625,0,0,0,.625-.625V.625A.625.625,0,0,0,11.25,0Zm8.125,0h-2.5a.625.625,0,0,0-.625.625v2.5a.625.625,0,0,0,.625.625h2.5A.625.625,0,0,0,20,3.125V.625A.625.625,0,0,0,19.375,0ZM3.125,8.125H.625A.625.625,0,0,0,0,8.75v2.5a.625.625,0,0,0,.625.625h2.5a.625.625,0,0,0,.625-.625V8.75A.625.625,0,0,0,3.125,8.125Zm8.125,0H8.75a.625.625,0,0,0-.625.625v2.5a.625.625,0,0,0,.625.625h2.5a.625.625,0,0,0,.625-.625V8.75A.625.625,0,0,0,11.25,8.125Zm8.125,0h-2.5a.625.625,0,0,0-.625.625v2.5a.625.625,0,0,0,.625.625h2.5A.625.625,0,0,0,20,11.25V8.75A.625.625,0,0,0,19.375,8.125ZM3.125,16.25H.625A.625.625,0,0,0,0,16.875v2.5A.625.625,0,0,0,.625,20h2.5a.625.625,0,0,0,.625-.625v-2.5A.625.625,0,0,0,3.125,16.25Zm8.125,0H8.75a.625.625,0,0,0-.625.625v2.5A.625.625,0,0,0,8.75,20h2.5a.625.625,0,0,0,.625-.625v-2.5A.625.625,0,0,0,11.25,16.25Zm8.125,0h-2.5a.625.625,0,0,0-.625.625v2.5a.625.625,0,0,0,.625.625h2.5A.625.625,0,0,0,20,19.375v-2.5A.625.625,0,0,0,19.375,16.25Z" fill="#007dba"/>
  </g>
</svg>
